<svg xmlns="http://www.w3.org/2000/svg" xmlns:xlink="http://www.w3.org/1999/xlink" width="160" zoomAndPan="magnify" viewBox="0 0 120 30.000001" height="40" preserveAspectRatio="xMidYMid meet" version="1.0"><defs><g/><clipPath id="c086c48329"><path d="M 2 4.0625 L 23.328125 4.0625 L 23.328125 24.976562 L 2 24.976562 Z M 2 4.0625 " clip-rule="nonzero"/></clipPath></defs><g clip-path="url(#c086c48329)"><path fill="#fff" d="M 23.25 14.519531 C 23.25 14.121094 23.027344 13.757812 22.671875 13.585938 L 19.78125 12.167969 L 22.671875 10.75 C 23.027344 10.578125 23.25 10.214844 23.25 9.816406 C 23.25 9.417969 23.027344 9.054688 22.671875 8.882812 L 13.078125 4.179688 C 12.796875 4.039062 12.464844 4.039062 12.183594 4.179688 L 2.589844 8.882812 C 2.234375 9.054688 2.011719 9.417969 2.011719 9.816406 C 2.011719 10.214844 2.234375 10.578125 2.589844 10.75 L 5.480469 12.167969 L 2.589844 13.585938 C 2.234375 13.757812 2.011719 14.121094 2.011719 14.519531 C 2.011719 14.917969 2.234375 15.277344 2.589844 15.453125 L 5.480469 16.871094 L 2.589844 18.285156 C 2.234375 18.460938 2.011719 18.824219 2.011719 19.222656 C 2.011719 19.621094 2.234375 19.984375 2.589844 20.15625 L 12.183594 24.859375 C 12.324219 24.929688 12.476562 24.964844 12.632812 24.964844 C 12.785156 24.964844 12.9375 24.929688 13.078125 24.859375 L 22.671875 20.15625 C 23.027344 19.984375 23.25 19.621094 23.25 19.222656 C 23.25 18.824219 23.027344 18.460938 22.671875 18.285156 L 19.78125 16.871094 L 22.671875 15.453125 C 23.027344 15.277344 23.25 14.917969 23.25 14.519531 Z M 12.632812 6.269531 L 19.867188 9.816406 L 12.632812 13.363281 L 5.394531 9.816406 Z M 19.867188 19.222656 L 12.632812 22.769531 L 5.394531 19.222656 L 7.835938 18.023438 L 12.183594 20.15625 C 12.324219 20.226562 12.476562 20.261719 12.632812 20.261719 C 12.785156 20.261719 12.9375 20.226562 13.078125 20.15625 L 17.425781 18.023438 Z M 12.632812 18.066406 L 5.394531 14.519531 L 7.835938 13.324219 L 12.183594 15.453125 C 12.324219 15.523438 12.476562 15.558594 12.632812 15.558594 C 12.785156 15.558594 12.9375 15.523438 13.078125 15.453125 L 17.425781 13.324219 L 19.867188 14.519531 Z M 12.632812 18.066406 " fill-opacity="1" fill-rule="nonzero"/></g><g fill="#fff" fill-opacity="1"><g transform="translate(30.050008, 18.55662)"><g><path d="M 3.265625 0 C 2.953125 -0.664062 2.640625 -1.351562 2.328125 -2.0625 C 2.023438 -2.78125 1.738281 -3.488281 1.46875 -4.1875 C 1.195312 -4.882812 0.941406 -5.550781 0.703125 -6.1875 C 0.472656 -6.832031 0.273438 -7.40625 0.109375 -7.90625 L 2.078125 -7.90625 C 2.222656 -7.445312 2.382812 -6.953125 2.5625 -6.421875 C 2.75 -5.898438 2.9375 -5.375 3.125 -4.84375 C 3.3125 -4.320312 3.488281 -3.820312 3.65625 -3.34375 C 3.832031 -2.863281 4 -2.445312 4.15625 -2.09375 C 4.300781 -2.445312 4.460938 -2.863281 4.640625 -3.34375 C 4.816406 -3.820312 5 -4.320312 5.1875 -4.84375 C 5.375 -5.375 5.554688 -5.898438 5.734375 -6.421875 C 5.910156 -6.953125 6.078125 -7.445312 6.234375 -7.90625 L 8.125 -7.90625 C 7.945312 -7.40625 7.742188 -6.832031 7.515625 -6.1875 C 7.285156 -5.550781 7.035156 -4.882812 6.765625 -4.1875 C 6.492188 -3.488281 6.203125 -2.78125 5.890625 -2.0625 C 5.585938 -1.351562 5.28125 -0.664062 4.96875 0 Z M 3.265625 0 "/></g></g></g><g fill="#fff" fill-opacity="1"><g transform="translate(40.055179, 18.55662)"><g><path d="M 0.515625 -2.953125 C 0.515625 -3.484375 0.59375 -3.945312 0.75 -4.34375 C 0.914062 -4.75 1.128906 -5.082031 1.390625 -5.34375 C 1.660156 -5.613281 1.96875 -5.816406 2.3125 -5.953125 C 2.664062 -6.085938 3.023438 -6.15625 3.390625 -6.15625 C 4.242188 -6.15625 4.914062 -5.894531 5.40625 -5.375 C 5.894531 -4.851562 6.140625 -4.085938 6.140625 -3.078125 C 6.140625 -2.984375 6.132812 -2.875 6.125 -2.75 C 6.125 -2.632812 6.117188 -2.53125 6.109375 -2.4375 L 2.265625 -2.4375 C 2.296875 -2.09375 2.457031 -1.816406 2.75 -1.609375 C 3.039062 -1.398438 3.425781 -1.296875 3.90625 -1.296875 C 4.21875 -1.296875 4.523438 -1.320312 4.828125 -1.375 C 5.128906 -1.4375 5.375 -1.507812 5.5625 -1.59375 L 5.796875 -0.21875 C 5.703125 -0.164062 5.578125 -0.117188 5.421875 -0.078125 C 5.273438 -0.0351562 5.109375 0 4.921875 0.03125 C 4.734375 0.0703125 4.53125 0.101562 4.3125 0.125 C 4.101562 0.144531 3.894531 0.15625 3.6875 0.15625 C 3.144531 0.15625 2.671875 0.078125 2.265625 -0.078125 C 1.867188 -0.234375 1.539062 -0.453125 1.28125 -0.734375 C 1.019531 -1.015625 0.828125 -1.34375 0.703125 -1.71875 C 0.578125 -2.101562 0.515625 -2.515625 0.515625 -2.953125 Z M 4.5 -3.609375 C 4.5 -3.753906 4.476562 -3.894531 4.4375 -4.03125 C 4.394531 -4.164062 4.328125 -4.285156 4.234375 -4.390625 C 4.148438 -4.492188 4.039062 -4.578125 3.90625 -4.640625 C 3.769531 -4.710938 3.601562 -4.75 3.40625 -4.75 C 3.21875 -4.75 3.054688 -4.71875 2.921875 -4.65625 C 2.785156 -4.59375 2.671875 -4.507812 2.578125 -4.40625 C 2.484375 -4.300781 2.410156 -4.175781 2.359375 -4.03125 C 2.316406 -3.894531 2.285156 -3.753906 2.265625 -3.609375 Z M 4.5 -3.609375 "/></g></g></g><g fill="#fff" fill-opacity="1"><g transform="translate(48.485996, 18.55662)"><g><path d="M 0.796875 -5.796875 C 1.085938 -5.878906 1.457031 -5.957031 1.90625 -6.03125 C 2.363281 -6.101562 2.847656 -6.140625 3.359375 -6.140625 C 3.867188 -6.140625 4.289062 -6.070312 4.625 -5.9375 C 4.957031 -5.800781 5.222656 -5.609375 5.421875 -5.359375 C 5.617188 -5.117188 5.757812 -4.832031 5.84375 -4.5 C 5.9375 -4.164062 5.984375 -3.796875 5.984375 -3.390625 L 5.984375 0 L 4.28125 0 L 4.28125 -3.1875 C 4.28125 -3.726562 4.207031 -4.113281 4.0625 -4.34375 C 3.914062 -4.570312 3.644531 -4.6875 3.25 -4.6875 C 3.125 -4.6875 2.992188 -4.679688 2.859375 -4.671875 C 2.722656 -4.660156 2.601562 -4.644531 2.5 -4.625 L 2.5 0 L 0.796875 0 Z M 0.796875 -5.796875 "/></g></g></g><g fill="#fff" fill-opacity="1"><g transform="translate(56.973851, 18.55662)"><g><path d="M 2.25 -3.046875 C 2.25 -2.523438 2.363281 -2.101562 2.59375 -1.78125 C 2.832031 -1.457031 3.1875 -1.296875 3.65625 -1.296875 C 3.800781 -1.296875 3.9375 -1.300781 4.0625 -1.3125 C 4.195312 -1.320312 4.304688 -1.335938 4.390625 -1.359375 L 4.390625 -4.453125 C 4.285156 -4.515625 4.144531 -4.566406 3.96875 -4.609375 C 3.800781 -4.660156 3.628906 -4.6875 3.453125 -4.6875 C 2.648438 -4.6875 2.25 -4.140625 2.25 -3.046875 Z M 6.09375 -0.1875 C 5.9375 -0.144531 5.757812 -0.101562 5.5625 -0.0625 C 5.363281 -0.0195312 5.15625 0.015625 4.9375 0.046875 C 4.726562 0.078125 4.507812 0.0976562 4.28125 0.109375 C 4.0625 0.128906 3.847656 0.140625 3.640625 0.140625 C 3.140625 0.140625 2.695312 0.0703125 2.3125 -0.0625 C 1.925781 -0.207031 1.597656 -0.414062 1.328125 -0.6875 C 1.066406 -0.957031 0.863281 -1.285156 0.71875 -1.671875 C 0.582031 -2.054688 0.515625 -2.488281 0.515625 -2.96875 C 0.515625 -3.457031 0.570312 -3.894531 0.6875 -4.28125 C 0.8125 -4.675781 0.988281 -5.007812 1.21875 -5.28125 C 1.445312 -5.550781 1.726562 -5.757812 2.0625 -5.90625 C 2.394531 -6.050781 2.769531 -6.125 3.1875 -6.125 C 3.425781 -6.125 3.640625 -6.097656 3.828125 -6.046875 C 4.015625 -6.003906 4.203125 -5.941406 4.390625 -5.859375 L 4.390625 -8.578125 L 6.09375 -8.84375 Z M 6.09375 -0.1875 "/></g></g></g><g fill="#fff" fill-opacity="1"><g transform="translate(65.632835, 18.55662)"><g><path d="M 6.40625 -3.015625 C 6.40625 -2.535156 6.335938 -2.097656 6.203125 -1.703125 C 6.066406 -1.316406 5.867188 -0.984375 5.609375 -0.703125 C 5.347656 -0.429688 5.035156 -0.21875 4.671875 -0.0625 C 4.316406 0.0820312 3.914062 0.15625 3.46875 0.15625 C 3.03125 0.15625 2.628906 0.0820312 2.265625 -0.0625 C 1.898438 -0.21875 1.585938 -0.429688 1.328125 -0.703125 C 1.078125 -0.984375 0.878906 -1.316406 0.734375 -1.703125 C 0.585938 -2.097656 0.515625 -2.535156 0.515625 -3.015625 C 0.515625 -3.484375 0.585938 -3.910156 0.734375 -4.296875 C 0.878906 -4.679688 1.082031 -5.007812 1.34375 -5.28125 C 1.613281 -5.5625 1.925781 -5.773438 2.28125 -5.921875 C 2.644531 -6.078125 3.039062 -6.15625 3.46875 -6.15625 C 3.90625 -6.15625 4.300781 -6.078125 4.65625 -5.921875 C 5.019531 -5.773438 5.332031 -5.5625 5.59375 -5.28125 C 5.851562 -5.007812 6.050781 -4.679688 6.1875 -4.296875 C 6.332031 -3.910156 6.40625 -3.484375 6.40625 -3.015625 Z M 4.671875 -3.015625 C 4.671875 -3.535156 4.566406 -3.945312 4.359375 -4.25 C 4.148438 -4.550781 3.851562 -4.703125 3.46875 -4.703125 C 3.082031 -4.703125 2.78125 -4.550781 2.5625 -4.25 C 2.351562 -3.945312 2.25 -3.535156 2.25 -3.015625 C 2.25 -2.484375 2.351562 -2.0625 2.5625 -1.75 C 2.78125 -1.445312 3.082031 -1.296875 3.46875 -1.296875 C 3.851562 -1.296875 4.148438 -1.445312 4.359375 -1.75 C 4.566406 -2.0625 4.671875 -2.484375 4.671875 -3.015625 Z M 4.671875 -3.015625 "/></g></g></g><g fill="#fff" fill-opacity="1"><g transform="translate(74.326047, 18.55662)"><g><path d="M 4.421875 -4.5 C 4.265625 -4.53125 4.082031 -4.566406 3.875 -4.609375 C 3.664062 -4.648438 3.445312 -4.671875 3.21875 -4.671875 C 3.113281 -4.671875 2.984375 -4.660156 2.828125 -4.640625 C 2.679688 -4.628906 2.570312 -4.609375 2.5 -4.578125 L 2.5 0 L 0.796875 0 L 0.796875 -5.6875 C 1.097656 -5.789062 1.457031 -5.890625 1.875 -5.984375 C 2.289062 -6.078125 2.753906 -6.125 3.265625 -6.125 C 3.359375 -6.125 3.46875 -6.117188 3.59375 -6.109375 C 3.71875 -6.097656 3.84375 -6.082031 3.96875 -6.0625 C 4.101562 -6.039062 4.234375 -6.015625 4.359375 -5.984375 C 4.492188 -5.960938 4.609375 -5.929688 4.703125 -5.890625 Z M 4.421875 -4.5 "/></g></g></g><g fill="#fff" fill-opacity="1"><g transform="translate(80.908705, 18.55662)"><g><path d="M 2.515625 -1.21875 C 2.828125 -1.21875 3.046875 -1.25 3.171875 -1.3125 C 3.304688 -1.375 3.375 -1.492188 3.375 -1.671875 C 3.375 -1.804688 3.289062 -1.921875 3.125 -2.015625 C 2.957031 -2.117188 2.703125 -2.238281 2.359375 -2.375 C 2.097656 -2.46875 1.859375 -2.566406 1.640625 -2.671875 C 1.421875 -2.785156 1.234375 -2.914062 1.078125 -3.0625 C 0.929688 -3.207031 0.816406 -3.382812 0.734375 -3.59375 C 0.648438 -3.800781 0.609375 -4.046875 0.609375 -4.328125 C 0.609375 -4.890625 0.816406 -5.332031 1.234375 -5.65625 C 1.648438 -5.988281 2.222656 -6.15625 2.953125 -6.15625 C 3.316406 -6.15625 3.664062 -6.125 4 -6.0625 C 4.332031 -6 4.597656 -5.925781 4.796875 -5.84375 L 4.5 -4.53125 C 4.300781 -4.59375 4.085938 -4.648438 3.859375 -4.703125 C 3.628906 -4.765625 3.367188 -4.796875 3.078125 -4.796875 C 2.546875 -4.796875 2.28125 -4.644531 2.28125 -4.34375 C 2.28125 -4.28125 2.289062 -4.21875 2.3125 -4.15625 C 2.332031 -4.101562 2.378906 -4.050781 2.453125 -4 C 2.523438 -3.957031 2.617188 -3.90625 2.734375 -3.84375 C 2.847656 -3.789062 3 -3.726562 3.1875 -3.65625 C 3.550781 -3.519531 3.851562 -3.382812 4.09375 -3.25 C 4.34375 -3.125 4.535156 -2.984375 4.671875 -2.828125 C 4.816406 -2.671875 4.914062 -2.492188 4.96875 -2.296875 C 5.03125 -2.109375 5.0625 -1.890625 5.0625 -1.640625 C 5.0625 -1.046875 4.835938 -0.597656 4.390625 -0.296875 C 3.953125 0.00390625 3.328125 0.15625 2.515625 0.15625 C 1.972656 0.15625 1.523438 0.109375 1.171875 0.015625 C 0.828125 -0.0664062 0.582031 -0.140625 0.4375 -0.203125 L 0.734375 -1.578125 C 1.015625 -1.472656 1.304688 -1.382812 1.609375 -1.3125 C 1.921875 -1.25 2.222656 -1.21875 2.515625 -1.21875 Z M 2.515625 -1.21875 "/></g></g></g><g fill="#fff" fill-opacity="1"><g transform="translate(88.210091, 18.55662)"><g><path d="M 0.734375 -7.5 L 2.4375 -7.765625 L 2.4375 -6 L 4.484375 -6 L 4.484375 -4.578125 L 2.4375 -4.578125 L 2.4375 -2.46875 C 2.4375 -2.113281 2.5 -1.828125 2.625 -1.609375 C 2.75 -1.398438 3.003906 -1.296875 3.390625 -1.296875 C 3.566406 -1.296875 3.753906 -1.3125 3.953125 -1.34375 C 4.148438 -1.382812 4.328125 -1.4375 4.484375 -1.5 L 4.71875 -0.171875 C 4.519531 -0.0859375 4.289062 -0.015625 4.03125 0.046875 C 3.78125 0.109375 3.472656 0.140625 3.109375 0.140625 C 2.648438 0.140625 2.265625 0.078125 1.953125 -0.046875 C 1.648438 -0.171875 1.40625 -0.34375 1.21875 -0.5625 C 1.039062 -0.789062 0.914062 -1.066406 0.84375 -1.390625 C 0.769531 -1.710938 0.734375 -2.066406 0.734375 -2.453125 Z M 0.734375 -7.5 "/></g></g></g><g fill="#fff" fill-opacity="1"><g transform="translate(95.04373, 18.55662)"><g><path d="M 3.09375 -1.1875 C 3.257812 -1.1875 3.414062 -1.1875 3.5625 -1.1875 C 3.71875 -1.195312 3.84375 -1.210938 3.9375 -1.234375 L 3.9375 -2.515625 C 3.863281 -2.535156 3.757812 -2.550781 3.625 -2.5625 C 3.488281 -2.582031 3.363281 -2.59375 3.25 -2.59375 C 3.09375 -2.59375 2.941406 -2.582031 2.796875 -2.5625 C 2.660156 -2.539062 2.535156 -2.503906 2.421875 -2.453125 C 2.316406 -2.398438 2.234375 -2.328125 2.171875 -2.234375 C 2.117188 -2.140625 2.09375 -2.023438 2.09375 -1.890625 C 2.09375 -1.628906 2.179688 -1.445312 2.359375 -1.34375 C 2.535156 -1.238281 2.78125 -1.1875 3.09375 -1.1875 Z M 2.953125 -6.15625 C 3.453125 -6.15625 3.867188 -6.097656 4.203125 -5.984375 C 4.535156 -5.867188 4.800781 -5.703125 5 -5.484375 C 5.207031 -5.273438 5.351562 -5.019531 5.4375 -4.71875 C 5.519531 -4.414062 5.5625 -4.078125 5.5625 -3.703125 L 5.5625 -0.171875 C 5.320312 -0.117188 4.984375 -0.0546875 4.546875 0.015625 C 4.117188 0.0859375 3.597656 0.125 2.984375 0.125 C 2.585938 0.125 2.234375 0.0859375 1.921875 0.015625 C 1.609375 -0.046875 1.335938 -0.15625 1.109375 -0.3125 C 0.878906 -0.46875 0.703125 -0.671875 0.578125 -0.921875 C 0.460938 -1.171875 0.40625 -1.476562 0.40625 -1.84375 C 0.40625 -2.195312 0.472656 -2.492188 0.609375 -2.734375 C 0.753906 -2.984375 0.941406 -3.175781 1.171875 -3.3125 C 1.410156 -3.457031 1.679688 -3.5625 1.984375 -3.625 C 2.285156 -3.695312 2.601562 -3.734375 2.9375 -3.734375 C 3.15625 -3.734375 3.347656 -3.722656 3.515625 -3.703125 C 3.691406 -3.679688 3.832031 -3.65625 3.9375 -3.625 L 3.9375 -3.78125 C 3.9375 -4.070312 3.847656 -4.304688 3.671875 -4.484375 C 3.492188 -4.660156 3.191406 -4.75 2.765625 -4.75 C 2.472656 -4.75 2.1875 -4.726562 1.90625 -4.6875 C 1.625 -4.644531 1.378906 -4.582031 1.171875 -4.5 L 0.953125 -5.875 C 1.054688 -5.90625 1.179688 -5.9375 1.328125 -5.96875 C 1.472656 -6 1.632812 -6.03125 1.8125 -6.0625 C 1.988281 -6.09375 2.171875 -6.113281 2.359375 -6.125 C 2.554688 -6.144531 2.753906 -6.15625 2.953125 -6.15625 Z M 2.953125 -6.15625 "/></g></g></g><g fill="#fff" fill-opacity="1"><g transform="translate(103.120884, 18.55662)"><g><path d="M 0.515625 -3 C 0.515625 -3.4375 0.582031 -3.84375 0.71875 -4.21875 C 0.863281 -4.601562 1.066406 -4.9375 1.328125 -5.21875 C 1.597656 -5.507812 1.921875 -5.738281 2.296875 -5.90625 C 2.679688 -6.070312 3.117188 -6.15625 3.609375 -6.15625 C 3.921875 -6.15625 4.207031 -6.125 4.46875 -6.0625 C 4.738281 -6.007812 5.003906 -5.929688 5.265625 -5.828125 L 4.90625 -4.46875 C 4.75 -4.53125 4.570312 -4.582031 4.375 -4.625 C 4.1875 -4.675781 3.972656 -4.703125 3.734375 -4.703125 C 3.234375 -4.703125 2.859375 -4.546875 2.609375 -4.234375 C 2.367188 -3.921875 2.25 -3.507812 2.25 -3 C 2.25 -2.457031 2.363281 -2.035156 2.59375 -1.734375 C 2.820312 -1.441406 3.226562 -1.296875 3.8125 -1.296875 C 4.019531 -1.296875 4.238281 -1.316406 4.46875 -1.359375 C 4.707031 -1.398438 4.925781 -1.460938 5.125 -1.546875 L 5.359375 -0.140625 C 5.160156 -0.0546875 4.910156 0.0078125 4.609375 0.0625 C 4.316406 0.125 3.992188 0.15625 3.640625 0.15625 C 3.085938 0.15625 2.613281 0.078125 2.21875 -0.078125 C 1.820312 -0.242188 1.492188 -0.46875 1.234375 -0.75 C 0.984375 -1.03125 0.800781 -1.363281 0.6875 -1.75 C 0.570312 -2.132812 0.515625 -2.550781 0.515625 -3 Z M 0.515625 -3 "/></g></g></g><g fill="#fff" fill-opacity="1"><g transform="translate(110.593397, 18.55662)"><g><path d="M 2.5 -3.828125 C 2.664062 -4.015625 2.835938 -4.207031 3.015625 -4.40625 C 3.191406 -4.601562 3.363281 -4.796875 3.53125 -4.984375 C 3.695312 -5.179688 3.851562 -5.367188 4 -5.546875 C 4.15625 -5.722656 4.285156 -5.875 4.390625 -6 L 6.40625 -6 C 6.007812 -5.53125 5.617188 -5.082031 5.234375 -4.65625 C 4.847656 -4.238281 4.425781 -3.804688 3.96875 -3.359375 C 4.195312 -3.160156 4.429688 -2.914062 4.671875 -2.625 C 4.921875 -2.34375 5.15625 -2.046875 5.375 -1.734375 C 5.601562 -1.429688 5.8125 -1.128906 6 -0.828125 C 6.195312 -0.523438 6.359375 -0.25 6.484375 0 L 4.546875 0 C 4.421875 -0.195312 4.28125 -0.414062 4.125 -0.65625 C 3.96875 -0.894531 3.800781 -1.132812 3.625 -1.375 C 3.445312 -1.613281 3.257812 -1.84375 3.0625 -2.0625 C 2.875 -2.28125 2.6875 -2.46875 2.5 -2.625 L 2.5 0 L 0.796875 0 L 0.796875 -8.578125 L 2.5 -8.84375 Z M 2.5 -3.828125 "/></g></g></g></svg>